<?xml version="1.0" encoding="utf-8"?>
<!-- Generator: Adobe Illustrator 24.2.1, SVG Export Plug-In . SVG Version: 6.00 Build 0)  -->
<svg version="1.1" xmlns="http://www.w3.org/2000/svg" xmlns:xlink="http://www.w3.org/1999/xlink" x="0px" y="0px"
	 viewBox="0 0 1024 768" style="enable-background:new 0 0 1024 768;" xml:space="preserve">
<style type="text/css">
	.st0{display:none;}
	.st1{display:inline;fill:#1C1B17;}
	.st2{fill:#EBEFEF;}
	.st3{fill:#0C6CB4;}
	.st4{fill:#4B9336;}
	.st5{fill:#B52628;}
	.st6{fill:#B68F5C;}
	.st7{fill:#6AC3DF;}
	.st8{fill:#C2A888;}
	.st9{fill:#F0CA81;}
	.st10{fill:#D90000;}
	.st11{fill:#FFF679;}
	.st12{fill:#BCBCBC;}
	.st13{fill:#FCFBF9;}
	.st14{fill:#B36D0A;}
	.st15{fill:#B16C11;}
	.st16{fill:#B26D0A;}
	.st17{fill:#FBFBFB;}
	.st18{fill:#FCFCFC;}
	.st19{fill:#FCFCFB;}
	.st20{fill:#FCFCFA;}
	.st21{fill:#F9F8F5;}
	.st22{fill:#ECEBEB;}
	.st23{fill:#F1EFF0;}
	.st24{fill:#EDEBEC;}
	.st25{fill:#E9E7E8;}
	.st26{fill:#EAE8E9;}
	.st27{fill:#EBE9EA;}
	.st28{fill:#E8E6E7;}
	.st29{fill:#1D1B17;}
	.st30{fill:#1C1B17;}
	.st31{fill:#2A2A28;}
	.st32{fill:#1C1B1A;}
	.st33{fill:#1A1A1A;}
	.st34{fill:#1D1B1C;}
	.st35{fill:#171516;}
	.st36{fill:#2A2829;}
	.st37{fill:#272526;}
	.st38{fill:#FAF9F5;}
	.st39{fill:#F9F7F4;}
	.st40{fill:#F8F8F5;}
	.st41{fill:#F8F7F5;}
	.st42{fill:#F5F2EF;}
	.st43{fill:#F5F4F0;}
	.st44{fill:#FDFCF8;}
	.st45{fill:#B7B6B2;}
	.st46{fill:#1D1C18;}
	.st47{fill:#23221F;}
	.st48{fill:#F1F1F1;}
	.st49{fill:#161616;}
</style>
<g id="Layer_4" class="st0">
	<rect x="1" y="3" class="st1" width="1034" height="768"/>
</g>
<g id="Layer_1">
	<g>
		<path class="st2" d="M-278.1,330.9c-79.9,0-159.9,0-239.8,0c-6.8,0-6.7,0-5.3-6.6c7.3-36.6,22-70,44.2-100
			c26.3-35.6,59.7-62.6,100.3-80.6c13.3-5.9,26.9-10.8,41-14.2c47-11.3,93.5-9.8,139.5,5.5c45.1,15,82.7,40.8,113.2,77.1
			C-57.3,245.1-39.5,283-31,325.4c0.9,4.6-0.2,5.5-4.7,5.5C-116.6,330.8-197.3,330.8-278.1,330.9z"/>
		<path class="st3" d="M-232.4,150.6c-0.9,0.8-1.7,1.6-2.6,2.3c-13.3,10.5-26.7,20.9-39.9,31.5c-2.1,1.7-3.2,1.3-5-0.2
			c-13.3-10.5-26.5-21.1-40-31.4c-3.2-2.4-2.5-3.5,0.6-5c6.3-3,12.9-4.3,19.7-5.2c17.9-2.2,35.8-2.3,53.5,1.6
			c3.9,0.9,7.7,2,11.3,3.9C-233.8,148.6-232.7,149.1-232.4,150.6z"/>
		<path class="st3" d="M-97,316.3c-11.6,0-23.3,0-34.9,0c-5.7,0-7.9-3.2-5.1-8.3c4.1-7.3,6.1-15,6.5-23.2c0.1-1.1-0.5-3.7,2.3-2.1
			c11.4,6.4,24.1,6.4,36.6,7c7.6,0.4,15.3,0,22.9-0.4c2.9-0.2,4.7,0.8,6.2,3.1c3.9,6.1,5.1,12.9,5.9,19.8c0.4,3.4-0.9,4.2-4.1,4.2
			C-72.7,316.3-84.9,316.4-97,316.3C-97,316.4-97,316.4-97,316.3z"/>
		<path class="st3" d="M-424.9,281.9c0.8,9.6,2.2,18.4,7,26.5c2.8,4.8,0.4,8-5.2,8c-23.5,0-46.9-0.1-70.4,0.1
			c-4.8,0.1-5.6-1.7-5-5.7c0.9-5.9,2.1-11.8,5.1-17.1c1.8-3.2,4.1-4.5,8-4.3c15.6,1,31.2,0.9,46.7-2.4
			C-434,286-429.6,284.1-424.9,281.9z"/>
		<path class="st3" d="M-153,316.6c-30.9,0-60.9,0-91,0c-1.3,0-3,0.1-3.5-1.3c-0.6-1.7,1.3-2,2.3-2.8c6.3-5,11.3-11.2,16.3-17.5
			c1.6-2.1,3.2-2.9,5.8-2.8c16.3,0.6,32.1-1.9,47.1-8.5c1.1-0.5,2.9-2.2,3.2,0.7c1.6,12.9,9.5,22,18.6,30.3
			C-153.9,315.1-153.7,315.6-153,316.6z"/>
		<path class="st3" d="M-402.3,315.6c5.9-5.3,10.9-10.4,14.6-16.6c2.7-4.5,4.9-9.1,5.2-14.4c0.2-2.5,1-2.6,3.1-1.7
			c15.2,6.9,31.2,9.6,47.8,8.9c2.1-0.1,3.7,0.3,5.1,2.2c5.3,6.9,10.8,13.6,17.8,18.8c0.7,0.5,1.6,1,1.2,1.9
			c-0.3,0.6-1.3,0.9-2.1,1.2c-0.6,0.2-1.3,0.1-2,0.1c-29.5,0-58.9,0-88.4,0.1C-400.4,316-400.8,315.8-402.3,315.6z"/>
		<path class="st4" d="M-298.8,307.8c-24-8.9-35.5-31-29.5-56.6c0.7-2.7,1.5-5.5,2.4-8.1c2.3-7,2.4-7.1,9.5-5.4
			c12.3,2.9,20.7,10.8,27.6,20.8c1.3,1.8,0.5,2.9-0.7,4.3c-3.5,4-6.8,8.1-9.1,13c-5.1,10.4-5.8,20.7,0.3,30.9
			C-298,307.2-298.2,307.6-298.8,307.8z"/>
		<path class="st4" d="M-256.7,306.5c9-16.1,2.9-29.6-7.4-42c-3-3.6-2.8-5.7-0.1-9.1c7-8.9,15.2-15.6,26.5-18.2
			c4.4-1,6.9-0.1,8.4,4.7c4.7,14.9,6.6,29.5-1.1,43.9c-5.2,9.6-13.3,16.2-23.1,20.8C-254.5,307.2-255.4,307.5-256.7,306.5z"/>
		<path class="st4" d="M-339.4,215.7c-11.5-3.3-21-8.3-26.1-19.4c-1.7-3.8-1.9-7.5-0.2-11.5c3.7-8.8,7.9-17.1,15.2-23.6
			c7.8-6.9,18.5-5,25-1c4.3,2.7,5,6.8,3.4,11.4c-1.3,4-3.4,7.7-6.5,10.5c-9.3,8.3-12.1,18.7-10.8,30.6
			C-339.4,213.6-339.4,214.4-339.4,215.7z"/>
		<path class="st4" d="M-215.4,208.4c0.1-9.8-2.6-18.4-10.1-25.3c-3.6-3.3-6.2-7.4-7.7-12.1c-1.5-4.7-0.1-8.5,4.1-11.2
			c7.7-4.9,17-4.5,24.2,1.2c7.1,5.7,11.5,13.3,14.5,21.6c4.2,11.7,0.1,20.4-12.9,28c-1.6,0.9-3.2,1.7-4.9,2.5
			C-215.5,216.4-215.5,216.4-215.4,208.4z"/>
		<path class="st4" d="M-447.6,272.6c11.7-7.6,17.6-19.2,22.9-31.2c1.4-3.2,2.4-6.5,3-10c1.4-7.9,5.4-14.1,12.6-17.5
			c7.3-3.4,15-5.9,23.5-9.1c-1.4,8.1-4,14.8-6.5,21.6c-3,8.1-6.4,16-9.6,24.1c-1.3,3.2-3.5,5.6-6,7.9
			C-419,268.4-432.8,271.5-447.6,272.6z"/>
		<path class="st4" d="M-107.7,272.5c-15.3-1.3-29.8-4.5-41.2-15.8c-2-2-3.6-4.3-4.7-6.9c-6.1-14.2-11.7-28.5-15.8-43.4
			c1.9-0.8,3.6-0.1,5.3,0.5c5.4,2,10.9,3.7,16.2,5.9c8.5,3.5,12.5,10.4,14.4,19.1c2.1,9.9,7.1,18.7,12.6,27.2
			C-117.5,264.3-112.9,268.5-107.7,272.5z"/>
		<path class="st3" d="M-485.5,272.3c5.8-12.1,12.8-23.3,20.7-33.9c4.9-6.6,10.3-12.6,16.6-17.9c1.2-1,2.7-1.9,4.2-2.4
			c12.3-4.2,14.9-2.1,12.3,10.7c-4.8,23.5-20.3,38.8-47,43.2C-480.8,272.3-482.9,273.1-485.5,272.3z"/>
		<path class="st3" d="M-69.5,272.7c-13.5-1.1-25.1-4.8-35.5-12.4c-9.4-6.9-14-17-18.2-27.2c-1.5-3.6-0.8-8.2-1.3-12.3
			c-0.5-3.8,1.6-4.6,4.6-4.6c5.6,0,10.2,2.6,14.4,6c9.2,7.3,15.9,16.9,22.4,26.6C-78.2,256.2-73.6,263.8-69.5,272.7z"/>
		<path class="st5" d="M-287.9,191.8c-6.5,6.2-13.2,12.5-19.8,18.8c-4.8,4.5-9.6,9.1-14.3,13.7c-1.7,1.7-2.6,1.7-4.3-0.1
			c-8.8-9.7-10-21.9-3.1-33.1c4.9-7.9,12.1-14.3,15.7-23c0.9-2.2,1.9-0.5,2.5,0.2c6.6,6.6,13.2,13.1,19.5,19.9
			C-290.5,189.5-288.7,189.9-287.9,191.8z"/>
		<path class="st5" d="M-221.3,205.7c0.1,7.6-3.4,13.4-7.7,18.8c-1.5,1.9-2.5,1.3-3.9-0.1c-10.8-10.4-21.6-20.7-32.5-30.9
			c-1.3-1.2-1.8-2.1-0.3-3.6c7-6.8,13.9-13.8,20.8-20.7c1.2-1.2,2.3-1.8,3.5,0.1c5.4,9.1,13.2,16.6,17.8,26.2
			C-222.1,198.8-221.1,202.3-221.3,205.7z"/>
		<path class="st4" d="M-191.9,278.4c7.5-11.8,9-24.3,5.2-37.3c-1.5-5.1-3.7-10-4.4-15.3c-1.1-8.3,0.3-15.8,6.9-21.8
			c1.6-1.4,2.5-1.9,3.7,0.3c9,15.7,15,32.3,15.3,50.7C-165,270.5-174.5,278.1-191.9,278.4z"/>
		<path class="st4" d="M-363.2,278.6c-17.9-0.5-27.1-7.3-26.4-25.7c0.6-17.3,7-33,14.9-48.1c1.2-2.4,2.4-2.2,4.1-0.7
			c5,4.4,6.8,10.1,7,16.5c0.2,5.9-1.5,11.4-3.6,16.9c-5.5,13.8-4.2,27.1,3.7,39.7C-363.3,277.6-363.3,278.1-363.2,278.6z"/>
		<path class="st5" d="M-200.7,216.5c0.2,6.9,1.6,12.7,3.3,18.5c2.7,9,2.7,18.1,0.6,27.1c-2.2,9.6-7.9,16.3-18,18.6
			c-2.6,0.6-4.5,1-3.4-3.1c4-14.6,1.9-28.6-5.2-41.9c-1.4-2.7-1.6-4.1,1.4-5.8C-215,225.7-208.2,221.2-200.7,216.5z"/>
		<path class="st5" d="M-354.2,216.7c7.9,5,14.9,9.5,22.1,13.9c2.2,1.4,1.7,2.6,0.7,4.4c-7.5,13.7-9.6,28-5.3,43.1
			c1,3.5-1.1,3.1-3.1,2.7c-8.8-1.5-16.9-9.7-18.7-19c-1.8-9.6-0.4-19.1,1.5-28.6C-355.9,228-354.5,222.9-354.2,216.7z"/>
		<path class="st4" d="M-433.6,204.7c19.1-21.3,41.9-35,67.7-45.2C-370,188-400.4,207.9-433.6,204.7z"/>
		<path class="st4" d="M-121.5,204.5c-30.7,3.3-62.5-14.1-67.8-45.1C-163.4,169.5-140.9,183.7-121.5,204.5z"/>
		<path class="st3" d="M-284.9,221c-6.3,1.3-10.2,5.5-12.4,11.1c-0.8,2.2-1.4,2.1-3,1.5c-3.6-1.2-7.2-2.4-11.2-3.8
			c3.3-5.4,7.5-9.7,11.8-14c6-6,12.2-11.7,18.7-17.1c1.5-1.3,2.6-1.6,4.2-0.1c10,9,20.3,17.6,28.8,28.2c1.9,2.3,2.1,3.6-1.2,4.1
			c-0.8,0.1-1.6,0.4-2.4,0.7c-5,2.3-9,3.2-11.3-3.9c-1.3-4.2-5.9-6.1-10.4-6.9c-1.2-0.6-2.4-0.1-3.6-0.5c-0.4,0-0.9,0-1.3,0
			c-0.6,0.3-1.1,0.3-1.7,0.1c-0.8,0-1.5,0-2.3,0.1C-283.1,220.7-284.1,220.5-284.9,221z"/>
		<path class="st6" d="M-278.9,306.6c-1.3-0.1-3.3-0.2-5.2-0.6c-6-1.2-9.6-6-8.5-12c1.8-9.8,6.8-18.2,12-26.6c1.2-2,2.4-2,3.7,0
			c5.2,8.1,9.8,16.6,12,26C-263.2,301.1-268.9,306.5-278.9,306.6z"/>
		<path class="st4" d="M-392.5,281c-0.1,4-3,8.4-6,12.9c-2.3,3.3-5,6.2-7.9,9c-4.4,4.3-4.7,4.3-7.3-1.5c-2.9-6.5-6.2-13.4-1.2-20.1
			c3.8-5.1,9.1-8.7,14.2-12.5c1.5-1.1,2.4-0.3,3.5,0.6C-394.3,272.1-392.5,275.3-392.5,281z"/>
		<path class="st4" d="M-138.5,289.7c0.4,5.5-1.9,9.7-4.1,14c-1,1.9-2,2.9-4.1,1c-6-5.6-11.5-11.6-14.6-19.3
			c-2.6-6.5-1.4-11.9,3.2-15.9c1.1-1,2.1-2.1,3.8-0.8c5,3.8,10.2,7.4,13.7,12.8C-138.8,284.1-137,286.8-138.5,289.7z"/>
		<path class="st6" d="M-289.9,237.1c-0.9-6.1,0.2-7.9,5.7-9.6c1.1-0.3,2.3-0.6,3.4-0.7c4.8-0.4,9.7-0.3,12.5,4.3
			c2.7,4.3,0.1,8.4-2.2,12c-6.9,10.7-11,10.5-17.3-0.9c-0.7-1.3-1.2-2.7-1.8-4.1C-289.9,237.8-290,237.5-289.9,237.1z"/>
		<path class="st7" d="M-276.9,220.5c1.3-1,2.5-0.6,3.6,0.5C-274.5,221.1-275.7,221.1-276.9,220.5z"/>
		<path class="st7" d="M-284.9,221c0.8-0.7,1.6-1.2,2.6-0.4C-283.1,220.7-284,220.9-284.9,221z"/>
		<path class="st8" d="M-289.9,237.1c0.1,0.3,0.2,0.7,0.3,1C-289.7,237.8-289.8,237.4-289.9,237.1z"/>
		<path class="st7" d="M-279.9,220.5c0.5-0.7,1.1-0.7,1.7-0.1C-278.8,220.5-279.4,220.5-279.9,220.5z"/>
		<path class="st4" d="M-298.3,306.7c0.2,0.3,0.4,0.7,0.6,1c-0.4,0-0.7,0.1-1.1,0.1C-298.6,307.4-298.4,307-298.3,306.7z"/>
		<path class="st9" d="M-274.3,285.4c-0.1,3.5-1.6,5.4-4.6,5.3c-3-0.1-5.1-1.6-4.9-5c0.2-3.5,2.7-4.4,5.5-4.4
			C-275.4,281.3-274.1,283.1-274.3,285.4z"/>
		<path class="st9" d="M-275.7,239.9c-0.5,1.8-1.5,3-3.4,3c-2.1-0.1-2.7-1.7-2.6-3.4c0.1-1.8,1.2-2.6,2.9-2.5
			C-276.9,237-275.7,237.9-275.7,239.9z"/>
	</g>
	<g>
		<g>
			<path class="st10" d="M1649.3,51c-10.8,0-21.6,0-32.4,0h-32.1c-0.9,0-0.9,0-0.7-0.9c1-4.9,2.9-9.4,5.9-13.4
				c3.5-4.8,8-8.4,13.4-10.8c1.8-0.8,3.6-1.5,5.5-1.9c6.3-1.5,12.5-1.3,18.7,0.7c6,2,11.1,5.5,15.1,10.3c3.7,4.4,6.1,9.5,7.2,15.2
				C1650.1,50.9,1649.9,51,1649.3,51z"/>
		</g>
		<g>
			<path class="st11" d="M1646.7,50.9c-9.9,0-19.9,0-29.8,0h-29.5c-0.8,0-0.8,0-0.7-0.8c0.9-4.5,2.7-8.6,5.4-12.3
				c3.2-4.4,7.4-7.7,12.3-9.9c1.6-0.7,3.3-1.3,5.1-1.7c5.8-1.4,11.5-1.2,17.2,0.7c5.5,1.8,10.2,5,13.9,9.5c3.4,4.1,5.6,8.7,6.7,14
				C1647.4,50.8,1647.3,50.9,1646.7,50.9z"/>
		</g>
		<polygon class="st10" points="1617,24.5 1619,21.5 1615,21.5 		"/>
	</g>
	<path class="st12" d="M1590,47c0,0,5-15,16-17C1606,30,1592,40,1590,47"/>
	<g>
		<path class="st10" d="M916.4,455.7c-62.4,0.1-124.8,0.1-187.2-0.1c-6.3,0-9.6,2-12.1,7.7c-9.8,21.9-23,41.7-39.1,59.4
			c-117.1,129.2-325.4,98.6-400.4-58.8c-3.2-6.7-7-8.4-13.9-8.4c-30.9,0.3-61.7,0.1-92.6,0.1v0.1c-31.9,0-63.7,0.2-95.6-0.1
			c-6.8-0.1-7.4,3.2-7.5,8.6c-0.1,5.5,1.6,7.8,7.4,7.6c14.4-0.3,28.9,0.4,43.3-0.3c7.8-0.4,11.1,2.4,13.5,9.7
			c52.3,158.2,204.9,270,379.8,262.9c66-2.7,127.5-20.6,183.8-55.1C776.3,639.7,832,570,862.2,480.5c2.4-7.1,5.7-9.2,12.8-8.9
			c13.7,0.5,27.5-0.1,41.2,0.3c6.4,0.2,9.7-0.9,9.7-8.5C925.9,455.6,921.9,455.7,916.4,455.7z M841.8,482.1
			c-53.2,136.2-151.3,218.6-296.2,239.5C383.9,744.8,231,658.4,163.6,510c-4.1-9.1-7.9-18.5-11-28c-1-2.9-6.4-8-0.2-9.7
			c5.2-1.4,12.6-3.5,15.6,5.8c4.3,13.4,10.5,26.1,17,38.6c9.9,19,21,37.3,34.6,55c1.3-3.6-0.8-5.4-1.9-7.4
			c-13.8-26.2-25.3-53.3-33.5-81.7c-1-3.4-6-9.1,0.6-10.2c5.7-1,13.9-4.7,17.6,5.6c8.1,22,18.6,43,30.9,63.1
			c5.6,9.1,11.7,17.8,18.3,27.8c2.1-4.6-0.5-6.7-1.7-8.9c-12.5-24.9-23.5-50.4-31.2-77.3c-1-3.4-4.9-9,0.5-10.1
			c5.6-1.1,13.5-4.7,17.4,4.3c5.6,12.9,11,25.9,17.2,38.6c9.9,20.5,22.2,39.6,36.8,57.2c-7.8-16.9-15.8-33.6-23.3-50.6
			c-6-13.5-10.7-27.5-14.4-41.8c-0.7-2.6-4.7-6.7,1.1-8.1c4-0.9,8.4-1.5,11.2,3.8c4.6,8.9,9.3,17.9,15,26.1
			c48.3,70.9,114.9,112.4,200.9,116.6C591,624,672.5,575.3,727,480.4c1-1.7,1.8-3.6,2.7-5.4c2.8-5.2,8-4,11.6-2.7
			c3.9,1.3,0.7,5.2,0,7.8c-8.2,29.5-20.2,57.5-34.6,84.5c-1.3,2.5-2.7,5.1-4.1,7.6c12.2-11.8,20.5-26.1,28.9-40.4
			c9.7-16.5,17.7-33.8,24.7-51.6c2.9-7.4,12.2-11.4,19.1-8.2c5.1,2.3,1.4,6,0.6,8.6c-8.5,28.7-19.9,56.2-33.7,82.7
			c-1.2,2.3-2.4,4.6-2.6,7.9c1.6-1.7,3.3-3.4,4.6-5.3c19-26.6,34.6-55,46.4-85.5c3-7.9,11.1-11.4,19.1-8.5c5.7,2.1,1.5,5.9,0.8,8.2
			c-8.7,30.8-21.2,59.9-36.3,88.1c-1,1.9-2.1,3.9-2.5,6.2c22.7-28.3,40.1-59.7,53.4-93.4c1.3-3.2,1.3-8,5.6-8.9
			c4.2-0.8,9.4-1.9,12.7,0.8C845.9,474.9,843,479.1,841.8,482.1z"/>
		<path d="M497.1,314c-92.6,0-185.2,0-277.8,0c-3,0-6.1,0.2-9-0.2c-4.6-0.6-8.7-2.5-8.9-7.9c-0.2-5.4,3.7-8.4,8.2-8.3
			c6.4,0.2,7.2-3,8.5-8.1c30.4-113.2,101.2-186.1,215.7-214.9c10-2.5,20.5-3.4,30.7-5.1c9-1.5,10.9-5.5,5.7-13
			c-4.2-6.1-9.2-11.6-13.5-17.5c-6-8.4-4.7-14.5,3.9-20.3c15.7-10.6,58.1-10.4,73.7,0.4c7.5,5.2,8.9,11.3,3.7,18.9
			c-3.8,5.5-8.1,10.7-12.2,16c-8,10.6-6.7,14.2,6.4,15.8c46.7,5.7,89.8,21.2,128.3,48.4c59.9,42.4,98.1,99.7,115.5,170.9
			c1.2,5.1,2.1,8.5,8.6,8.4c4.6-0.1,8.4,3,8.1,8.4c-0.2,5.4-4.3,7.3-8.9,7.9c-3,0.4-6,0.1-9,0.1C682.2,314,589.6,314,497.1,314z"/>
		<path class="st10" d="M496.8,340.9c-139.2,0-278.4,0-417.6-0.1c-4.1,0-10.6,3.2-11.1-5.7c-0.5-7.6,1.5-10.4,9.8-10.3
			c79.8,0.3,159.7,0.1,239.5,0.1c198.9,0,397.9,0,596.8,0.1c5.1,0,11.5-2.5,11.8,7.3c0.4,9.9-5.4,8.7-11.5,8.7
			C775.2,341,636,341,496.8,340.9C496.8,341,496.8,340.9,496.8,340.9z"/>
		<path class="st10" d="M136.3,286.3c-0.5-8.6,0.4-19,2.9-29.1c3.1-12.6,0.4-23.6-8.6-32.4c-14.8-14.6-25-31.1-25.8-52.6
			c-1.1-27.6,1.6-54.3,16.3-78.5c1.7-2.9,3.7-5.6,5.8-8.2c15.1-19.1,31.5-19.9,46.4-0.7c26.2,33.7,28.4,72,18,111.7
			c-2.3,8.8-8.8,15.8-15.5,22c-13.3,12.3-17.9,26.8-12.8,44.6c3.7,13.1,1.8,26.7,2.2,40.1c0.1,4.8-2.2,6.7-6.6,6.8
			c-0.3,0-0.7,0-1,0.1C136.1,312.2,136.1,312.2,136.3,286.3z"/>
		<path class="st10" d="M869,118.5c0-13.4,0.1-26.8,0-40.2c0-4.2,0.6-7.2,5.9-7.1c4.4,0.1,7.7,0,8.2,5.9c1.9,23.4,4.1,46.7,6.4,70
			c1.9,19.5-3.6,36.5-16.2,51.2c-16.3,19.1-20.5,40.3-15.3,64.7c2.8,12.9,1.8,26.7,2.4,40c0.1,2.7,0,5.9-3.7,6
			c-7.4,0.2-14.8,0.4-22.1-0.1c-4.9-0.4-3.6-4.9-3.7-8c-0.4-16.4-0.5-32.8,2.6-49.1c2.9-15.6,0.7-31.3-10.1-42.6
			c-25.2-26.1-26.6-57-22.1-89.9c1.7-12.9,2.7-26,3.5-39c0.3-5.4,1.1-8.8,7.8-8.7c6.8,0.1,6.3,4.2,6.4,8.7
			c0.1,23.1,0.2,46.3,0.4,69.4c0,2.7-0.1,5.4,0.1,8c0.3,3.6,0.2,8.1,5.5,7.8c4.7-0.3,4.2-4.5,4.2-7.8c0.1-6.7,0.1-13.4,0-20.1
			c-0.1-19.4-0.2-38.9-0.2-58.3c0-3.6-0.9-7.7,5-7.8c5.9,0,5,4.2,5.1,7.7c0.2,21.8,0.3,43.6,0.4,65.4c0,4.4,0,8.7,0.2,13.1
			c0.2,3.4,0.3,7.5,4.7,7.7c5.3,0.2,5-4.4,5-8.1c0-19.8-0.1-39.6-0.1-59.3c0-5.7-0.3-11.4,0-17.1c0.2-3.7-2.4-9.6,5.1-9.4
			c6.9,0.2,4.4,5.6,4.4,9c0.4,23.8,0.5,47.6,0.7,71.4c0,2.3,0,4.7,0.2,7c0.3,3.2,1.2,6.5,5,6.3c3.6-0.2,4.7-3.3,4.7-6.6
			c0-13.4,0-26.8,0-40.2C869.2,118.5,869.1,118.5,869,118.5z"/>
		<path class="st13" d="M760.5,297.2c-4.1,0-7.7,0-11.4,0c-168,0-336,0-504,0c-11.7,0-12.1-0.1-8.6-11.8
			c32.1-107,101.7-176.1,212.3-195.1c162.4-28,280.7,76.2,310.8,202.3C759.9,293.8,760.1,295.1,760.5,297.2z"/>
	</g>
	<g>
		<path class="st14" d="M-581.7,734c15.3,0,30.7,0.1,46-0.1c3.4,0,5.3,0.8,6.9,4.1c37.2,78.2,140.7,93.4,198.8,29.2
			c8-8.8,14.5-18.7,19.4-29.5c1.3-2.8,2.9-3.8,6-3.8c31,0.1,62,0.1,93,0.1c2.7,0,4.7-0.1,4.8,3.8c0,3.8-1.6,4.3-4.8,4.2
			c-6.8-0.2-13.7,0.1-20.5-0.1c-3.5-0.1-5.2,0.9-6.4,4.4c-15,44.5-42.7,79.1-82.7,103.5c-27.9,17.1-58.5,26-91.3,27.4
			c-86.9,3.5-162.6-52-188.6-130.6c-1.2-3.6-2.8-5-6.7-4.8c-7.1,0.3-14.3,0-21.5,0.2c-2.9,0.1-3.7-1-3.7-3.8c0-2.7,0.3-4.3,3.7-4.3
			C-613.4,734.1-597.5,734-581.7,734C-581.7,734-581.7,734-581.7,734z"/>
		<path class="st13" d="M-419.9,663.6c-46,0-92,0-138,0c-1.5,0-3,0.1-4.5-0.1c-2.3-0.3-4.3-1.2-4.4-3.9c-0.1-2.7,1.9-4.2,4.1-4.1
			c3.2,0.1,3.6-1.5,4.2-4c15.1-56.2,50.2-92.4,107.1-106.7c5-1.3,10.2-1.7,15.3-2.5c4.5-0.7,5.4-2.7,2.9-6.4c-2.1-3-4.6-5.7-6.7-8.7
			c-3-4.2-2.4-7.2,2-10.1c7.8-5.3,28.9-5.2,36.6,0.2c3.7,2.6,4.4,5.6,1.8,9.4c-1.9,2.7-4,5.3-6,7.9c-4,5.3-3.3,7.1,3.2,7.8
			c23.2,2.8,44.6,10.5,63.7,24.1c29.8,21.1,48.7,49.5,57.3,84.9c0.6,2.5,1,4.2,4.3,4.2c2.3,0,4.2,1.5,4,4.2
			c-0.1,2.7-2.1,3.6-4.4,3.9c-1.5,0.2-3,0.1-4.5,0.1C-327.9,663.6-373.9,663.6-419.9,663.6z"/>
		<path class="st15" d="M-420,677c-69.1,0-138.3,0-207.4-0.1c-2,0-5.2,1.6-5.5-2.8c-0.2-3.8,0.8-5.1,4.9-5.1
			c39.7,0.1,79.3,0.1,119,0.1c98.8,0,197.6,0,296.4,0c2.5,0,5.7-1.3,5.9,3.6c0.2,4.9-2.7,4.3-5.7,4.3C-281.7,677-350.9,677-420,677
			C-420,677-420,677-420,677z"/>
		<path class="st16" d="M-599.1,649.9c-0.2-4.3,0.2-9.5,1.4-14.5c1.5-6.3,0.2-11.7-4.3-16.1c-7.4-7.3-12.4-15.4-12.8-26.1
			c-0.5-13.7,0.8-26.9,8.1-39c0.9-1.4,1.8-2.8,2.9-4.1c7.5-9.5,15.7-9.9,23.1-0.3c13,16.7,14.1,35.8,8.9,55.5
			c-1.1,4.4-4.4,7.8-7.7,10.9c-6.6,6.1-8.9,13.3-6.4,22.1c1.8,6.5,0.9,13.2,1.1,19.9c0.1,2.4-1.1,3.3-3.3,3.4c-0.2,0-0.3,0-0.5,0
			C-599.1,662.7-599.1,662.7-599.1,649.9z"/>
		<path class="st14" d="M-235.1,566.5c0-6.7,0-13.3,0-20c0-2.1,0.3-3.6,2.9-3.5c2.2,0,3.8,0,4,3c0.9,11.6,2,23.2,3.2,34.8
			c1,9.7-1.8,18.1-8,25.4c-8.1,9.5-10.2,20-7.6,32.1c1.4,6.4,0.9,13.2,1.2,19.9c0.1,1.4,0,2.9-1.8,3c-3.7,0.1-7.3,0.2-11-0.1
			c-2.4-0.2-1.8-2.4-1.8-4c-0.2-8.2-0.2-16.3,1.3-24.4c1.4-7.7,0.4-15.5-5-21.1c-12.5-13-13.2-28.3-11-44.7
			c0.9-6.4,1.3-12.9,1.7-19.4c0.2-2.7,0.5-4.4,3.9-4.3c3.4,0,3.1,2.1,3.2,4.3c0,11.5,0.1,23,0.2,34.5c0,1.3-0.1,2.7,0,4
			c0.1,1.8,0.1,4,2.7,3.9c2.3-0.1,2.1-2.2,2.1-3.9c0-3.3,0-6.7,0-10c0-9.7-0.1-19.3-0.1-29c0-1.8-0.4-3.8,2.5-3.9
			c2.9,0,2.5,2.1,2.5,3.8c0.1,10.8,0.1,21.6,0.2,32.5c0,2.2,0,4.3,0.1,6.5c0.1,1.7,0.1,3.7,2.3,3.8c2.7,0.1,2.5-2.2,2.5-4
			c0-9.8,0-19.6-0.1-29.5c0-2.8-0.2-5.7,0-8.5c0.1-1.9-1.2-4.8,2.6-4.7c3.4,0.1,2.2,2.8,2.2,4.5c0.2,11.8,0.2,23.6,0.3,35.5
			c0,1.2,0,2.3,0.1,3.5c0.1,1.6,0.6,3.2,2.5,3.1c1.8-0.1,2.3-1.7,2.3-3.3c0-6.7,0-13.3,0-20C-235,566.5-235.1,566.5-235.1,566.5z"/>
		<path class="st17" d="M-277.8,711.1c0-5.4,0-10.8,0-16.3c0-2.6-1.7-2.9-3.7-2.8c-1.8,0.1-2.3-0.8-2.2-2.4c0.1-1.7,1.3-1.7,2.4-1.7
			c4,0,8,0,12,0c1.2,0,2.4-0.2,2.5,1.6c0,1.5,0,2.6-2,2.6c-3.2-0.1-3.1,2.2-3.1,4.4c0,7.3,0.1,14.7-0.1,22c0,1.5,1.3,4.2-1.4,4.4
			c-2.5,0.2-5.6,1.4-7.5-2c-4.3-7.5-8.9-14.8-13.4-22.1c-0.5-0.8-0.5-2-2.3-2.1c0,6.4,0,12.8,0,19.2c0,2.5,1.3,3.2,3.5,3
			c1.7-0.1,2.4,0.5,2.4,2.2c0,2.1-1.3,1.9-2.6,1.9c-10.2,0-20.3,0-30.5,0c-1.2,0-2.8,0.6-2.9-1.6c-0.1-1.5,0.2-2.6,2.1-2.5
			c1.2,0,3.3,0.5,3.4-1.1c0.1-1.7-0.4-4.1-1.6-5c-2.8-2.1-6.3-0.6-9.5-0.9c-2.4-0.2-2.3,1.9-2.9,3.3c-1,2.3-1,3.9,2.2,3.7
			c1.5-0.1,2.5,0.1,2.5,2.1c0,2-1,2.1-2.5,2.1c-3.8,0-7.7,0-11.5,0c-1.1,0-2.5,0.2-2.5-1.5c0-1.4,0.1-2.6,2-2.7
			c2.7-0.1,3.4-2.3,4.1-4.4c2.7-7.5,5.4-15,7.9-22.6c0.9-2.6,1.8-4.2,5.1-4.1c3.4,0,4.5,1.4,5.5,4.3c2.7,7.7,5.7,15.3,8.6,22.9
			c1.4,3.7,6.9,5.7,10.2,3.8c1.2-0.7,1.2-1.8,1.2-3c0-6.7-0.1-13.3,0-20c0-2.4-0.7-3.9-3.4-3.7c-1.8,0.2-2.2-0.8-2.2-2.4
			c0-1.8,1.1-1.7,2.3-1.7c3.7,0,7.3,0.1,11-0.1c2.2-0.1,2.8,1.6,3.6,2.9c4.2,6.8,8.3,13.6,12.4,20.4
			C-278.5,711.1-278.1,711.1-277.8,711.1z"/>
		<path class="st13" d="M-581.8,705.6c6.8,2.2,3.5,9,6,13.2c1.7-0.7,1.8-2.1,1.9-3.4c0.1-1.5,0.2-2.6,2.2-2.4c2.2,0.2,1.5,1.8,1.5,3
			c0.1,5-2.4,7.9-6.8,8.1c-4.7,0.2-7.1-2.1-7.5-7.3c-0.1-1.8,0-3.7-0.3-5.5c-0.5-3.6-6.7-6.6-9.4-4.5c-2,1.6-0.6,4.4-0.8,6.6
			c-0.3,2.9-0.4,6,4.1,5.5c1.6-0.2,1.9,0.8,1.9,2.2c0,1.6-0.7,2-2.1,2c-5,0-10,0-15,0c-1.2,0-1.9-0.4-1.9-1.7c0-1.2-0.1-2.6,1.7-2.4
			c3.9,0.3,3.7-2.2,3.7-4.8c-0.1-6-0.1-12,0-18c0-2.4-0.2-4.4-3.4-4.1c-1.5,0.1-1.9-0.7-2-2.1c-0.1-2.1,1.2-2,2.6-2
			c7.3,0.1,14.7,0,22,0.2c4.4,0.1,8.4,1.5,9.4,6.5c0.9,5.1-1.6,8.3-6.2,10C-580.8,704.9-581.2,705.2-581.8,705.6z"/>
		<path class="st18" d="M-359.7,705.6c6.8,2.4,4,8.7,6,13c2.6-0.5,1.7-2.5,2-4c0.2-1.3,1-1.6,2.1-1.6c1.3-0.1,1.6,0.6,1.7,1.8
			c0.7,4.7-2,8.8-6.2,9.3c-5,0.6-7.6-1.7-8.1-7.1c-0.2-2-0.2-4-0.6-6c-0.7-4.6-4.4-4.4-7.7-4.3c-3.8,0.1-2.1,3.2-2.1,4.9
			c0,3.3-1.7,7.9,4.7,7.4c1.4-0.1,1.1,1.4,1.1,2.3c0.1,1.3-0.7,1.7-1.9,1.7c-5,0-10,0-15,0c-1.2,0-2.3-0.1-2.2-1.8
			c0-1.3,0.2-2.4,1.8-2.3c3.8,0.3,3.8-2.2,3.7-4.9c-0.1-5.8,0-11.7,0-17.5c0-2.5,0.1-4.9-3.5-4.6c-1.5,0.1-2-0.6-2.1-2
			c-0.1-2,1.1-2.1,2.5-2.1c6.8,0,13.7-0.1,20.5,0.1c6.7,0.2,10.1,2.4,11,6.6C-350.8,699.3-352.7,702.1-359.7,705.6z"/>
		<path class="st19" d="M-550.7,723.1c-4.7,0-9.3,0-14,0c-1.3,0-3.1,0.6-3.1-1.9c0-1.9,0.9-2.3,2.4-2.2c2.8,0.1,3.1-1.6,3.1-3.9
			c-0.1-6.3-0.1-12.6,0-19c0-2.5-0.5-4.3-3.5-4.1c-1.5,0.1-2-0.6-2-2.1c-0.1-2,1.2-2,2.6-2c9.8,0,19.6,0,29.4,0
			c1.8,0,2.8,0.3,2.7,2.4c-0.1,3.2-0.1,6.3,0,9.5c0,1.3-0.2,2.2-1.9,2.2c-1.3,0-2.1-0.2-2.4-1.8c-0.4-2.7-0.1-6-3.4-7.3
			c-4-1.6-8.4-1.6-12.3-0.7c-3.3,0.7-1,4.5-1.5,6.9c-0.2,1.1-0.7,3,1.2,3.3c1.4,0.2,2.9-0.2,4.3-0.7c1-0.3,1.2-1.5,1.3-2.5
			c0.1-1.8,0.5-3.3,2.9-3c2.9,0.3,1.6,2.5,1.7,3.8c0.2,3.5,0.1,7,0,10.5c-0.1,1.2,1,3.1-1.5,3.5c-2.3,0.3-2.9-0.9-3-2.8
			c-0.1-2-0.8-3.6-2.9-4.1c-2.3-0.5-4.2-0.6-4,2.9c0.5,11.3-2.1,8.6,9.1,9c4.7,0.1,7.5-2.1,7.9-7c0.1-1.6-0.4-3.9,2.6-3.8
			c3.3,0.1,1.9,2.6,1.9,4c0.3,10.9,0.2,10.9-10.5,10.9C-546,723.1-548.3,723.1-550.7,723.1z"/>
		<path class="st17" d="M-527.2,715.6c0-1.2-0.1-2.4,0-3.5c0.2-1.4-1-3.5,1.8-3.8c2.3-0.2,2.6,1.3,3.2,2.9c2.2,5.9,5.8,8.3,11.7,7.9
			c2.8-0.2,5.6-0.6,6.1-3.9c0.5-3.3-2.1-4.6-4.8-5.3c-3.8-1-7.8-1.9-11.5-3.2c-4.6-1.6-7-4.9-6.6-10c0.4-4.9,3.3-8,7.8-9.3
			c3.5-1.1,7.2-0.9,10.8,0.4c2.1,0.8,4.1,3.4,6.8,0.3c0.8-1,2.8-0.3,2.8,2c-0.1,2.7,0,5.3,0,8c0,1.4,0.5,3.1-1.9,3.3
			c-1.9,0.1-2.4-0.9-3.1-2.4c-2.6-6.1-5.9-8-11.4-7.5c-2.4,0.2-4.8,0.8-5.2,3.7c-0.4,3,1.9,4,4.2,4.7c3,0.9,6.2,1.4,9.2,2.2
			c7.3,2.1,10.8,6.5,9.9,12.2c-1,6-6.1,9.7-13.2,9.7c-2.7,0-5.3-0.6-7.7-1.8c-1.8-0.9-3.5-3.1-5.5,0.4c-0.7,1.2-3.5,0.9-3.4-2.1
			C-527.1,718.9-527.2,717.2-527.2,715.6z"/>
		<path class="st20" d="M-398.7,703.8c0-2.3,0-4.7,0-7c0.1-2.6,0.3-5.2-3.6-4.9c-1.7,0.1-1.7-1.2-1.7-2.4c0-1.3,0.7-1.7,1.9-1.7
			c4.2,0,8.3,0,12.5,0c1.2,0,1.8,0.5,1.8,1.7c0,1.2,0.2,2.5-1.7,2.4c-3.5-0.2-3.4,2.2-3.4,4.6c0,5.3,0.1,10.7-0.1,16
			c-0.3,7.6-5.1,11.5-13.8,11.5c-8.8,0-13.6-3.8-13.8-11.5c-0.2-5.3-0.1-10.6-0.1-16c0-2.4,0.3-4.9-3.4-4.7
			c-1.7,0.1-1.7-1.1-1.7-2.3c0-1.8,1.1-1.7,2.3-1.8c4.7,0,9.3,0,14,0c1.2,0,2.3,0.1,2.3,1.8c0.1,1.8-0.6,2.5-2.3,2.3
			c-3.3-0.3-3.7,1.7-3.7,4.4c0.1,5.2-0.1,10.3,0.1,15.5c0.2,5,2.2,6.8,7.2,6.8c5,0,7-1.9,7.1-6.8
			C-398.7,709.2-398.7,706.5-398.7,703.8z"/>
		<path class="st17" d="M-434.4,723.1c-2.3,0-4.7,0-7,0c-1.2,0-2.3,0-2.4-1.7c0-1.7,0.5-2.4,2.2-2.4c1.5,0,4,0.6,3.3-2.1
			c-0.5-2.1-0.5-5.3-4.3-4.9c-2,0.2-4,0.2-6,0c-3.9-0.4-3.7,2.9-4.2,4.9c-0.8,2.9,1.8,2,3.2,2.1c1.4,0.1,2.1,0.6,2.1,2.1
			c0,1.5-0.6,2.1-2,2.1c-4.2,0-8.3,0-12.5,0c-1,0-2.1,0.1-2-1.5c0.1-1-0.5-2.5,1.3-2.6c3.7-0.3,4.2-3.2,5.2-5.9
			c2.6-7.4,5.3-14.7,7.7-22.1c0.8-2.4,2-3.5,4.6-3.2c2.3,0.2,4.3-0.2,5.3,3c2.7,8,5.9,15.8,8.9,23.7c0.8,2,1.3,4.3,4.1,4.4
			c1.7,0.1,1.6,1.2,1.7,2.4c0.1,1.7-1.1,1.8-2.3,1.8C-429.7,723.1-432.1,723.1-434.4,723.1C-434.4,723.1-434.4,723.1-434.4,723.1z"
			/>
		<path class="st17" d="M-477.7,687.9c4.5,0,9,0.1,13.5,0c2,0,3.1,0.5,3,2.8c-0.2,3,0,6,0,9c0,1.5,0.2,3-2.1,3.1
			c-2.1,0.1-2.4-1.1-2.5-2.8c-0.2-3.3-1.2-6.2-4.7-7.5c-2.4-0.9-3.7-0.7-3.6,2.4c0.2,6.7,0.2,13.3,0,20c-0.1,3,0.8,4.4,3.9,4.1
			c1.5-0.2,2.5,0.1,2.5,2.1c0,2-1,2.1-2.5,2.1c-5.2,0-10.3,0-15.5,0c-1.4,0-2.6,0.1-2.7-1.9c0-1.9,0.8-2.4,2.4-2.2
			c3.9,0.5,4.3-1.7,4.2-4.9c-0.2-6.2,0-12.3-0.1-18.5c0-3.9-1.3-4.7-4.7-2.7c-2.8,1.6-3.6,4.3-3.6,7.2c0,1.8-0.7,2.8-2.7,2.7
			c-2-0.1-1.9-1.4-1.9-2.8c0-0.2,0-0.3,0-0.5c-0.6-11.6-0.6-11.6,11-11.6C-481.7,687.9-479.7,687.9-477.7,687.9z"/>
		<path class="st17" d="M-247.9,687.9c3.8,0,7.6,0,11.5,0c0.8,0,1.7,0.1,2.5,0c2.6-0.2,2.7,1.6,2.3,3.2c-0.8,3.8,2.3,8.4-1.7,11.4
			c-1.7,1.2-2.6-0.8-2.8-2.7c-0.4-3.4-1.4-6.6-5.3-7.6c-2-0.5-3.1-0.2-3,2.3c0.1,7,0.1,14,0,20.9c0,2.6,0.9,3.7,3.5,3.5
			c1.6-0.1,2.9,0,2.8,2.3c-0.1,2.5-1.9,1.8-3.2,1.8c-4.8,0.1-9.6,0-14.5,0c-1.5,0-3.1,0.3-3-2.2c0.1-2,1.3-2.1,2.7-2
			c3.5,0.4,4.1-1.6,4-4.6c-0.2-6.1,0-12.3-0.1-18.5c0-1.3,1.1-3.2-0.9-3.9c-1.6-0.5-3.3,0.3-4.6,1.4c-2.1,1.7-2.7,4.1-2.8,6.7
			c0,1.9-0.8,2.7-2.7,2.6c-2.1-0.1-1.7-1.5-1.8-2.8c-1-12.1-1-12.1,11-12.1C-251.9,687.9-249.9,687.9-247.9,687.9z"/>
		<path class="st21" d="M-420.4,770.8c3.8,8.6,3.8,8.6,11.7,9.6c-2.2,1.8-5.3,3.1-5.9,5.2c-0.6,2.1,1.1,4.9,1.6,8.1
			c-4.6-5.3-9-5.3-13.8,0.1c2.1-5.7,3.2-10.6-4.5-13.3C-424.2,781.5-420.6,778.7-420.4,770.8z"/>
		<path class="st22" d="M-468,749c-0.3-3.2-1.6-4.5-4.8-4.1c-2.1,0.2-2.4,1.4-2.7,2.9c-0.1,0.7-1,1.6-0.1,2.2
			c2.1,1.2,2.4-1.7,4.2-1.9c0.7,2.8-1.1,4.9-1.1,7.6c-2.7-0.4-1.1-3.8-3.3-3.4c-2.1,0.4-1.3,2.8-2,4.2c-0.4,0.8-0.4,1.7,0.7,1.9
			c2,0.3,4,0.4,5.8-0.7c1.3-0.8,1.1-2.9,3.2-3.2c0,3.7-0.5,6.5-5.3,6.1c-3.1-0.3-6.3-0.1-9.6-0.1c2.4-5.6,5.3-10.8,3.5-17.4
			c2.7,0,5.8,0,8.9,0C-465.2,743.1-465,743.4-468,749z"/>
		<path class="st23" d="M-429.1,743.1c2.1,0,4.2,0,6.3,0c5.4,0.1,8.2,2.3,8.6,6.8c0.4,4.7-3,9.6-7.6,10.2c-3.4,0.4-6.9,0.1-10.4,0.1
			C-430,754.7-426.5,749.7-429.1,743.1z"/>
		<path class="st24" d="M-464.5,760.1c0.5-2.2,1-4.3,1.4-6.5c2.6,0.4,1.5,2.6,2.6,3.6c1.6,1.3,3.2,2.9,5.1,0.9
			c1.6-1.7,0.7-3.3-0.9-4.6c-1.3-1-2.7-2-3.9-3.1c-1.3-1.3-2.2-3-1.2-4.9c1-2,2.7-2.9,4.8-2.8c2,0.1,4,1.6,6.3-0.5
			c0,3-0.4,5-1.5,6.8c-1.8-0.5-1.1-2.1-1.8-2.9c-1.4-1.8-3.1-2-4.7-0.7c-1.7,1.5-0.1,2.7,0.9,3.6c1.1,1,2.4,1.8,3.5,2.8
			c2,1.6,2.9,3.7,1.7,6.2c-1.3,2.5-3.6,3.4-6.3,2.8C-460.3,760.2-462,758.9-464.5,760.1z"/>
		<path class="st25" d="M-386.2,754.2c-5.3-0.5-7.4-3.3-5.7-7.6c1-2.5,2.8-4.2,5.7-3.9c3.1,0.3,4,2.6,4.1,5.3
			c0.3,4.6-1.2,8.6-4.7,11.6c-1.9,1.7-4.2,2-6.2-0.2c-0.7-0.8-0.9-1.8-0.1-2.7c0.7-0.8,1.5-0.8,2.2-0.4
			C-387.7,758-387.7,758-386.2,754.2z"/>
		<path class="st26" d="M-447.9,760.4c3.2-2.3,7.4-12.4,6.8-14.4c-0.6-1.9-1.7-0.9-2.6-0.4c-1.4,0.9-1.1,3.1-2.9,3.8
			c-0.8-5.6-0.2-6.4,4.9-6.4c3,0,6,0,9,0c0.3,0,0.6,0.2,1,0.3c-0.3,2.2-0.5,4.4-2,6.3c-1.7-0.7-0.9-1.9-1-2.8
			c-0.1-0.8,0-1.7-1.1-1.9c-0.9-0.2-1.9,0.2-2,1.1c-0.6,4.2-4.1,8.1-1.6,12.7c0.9,1.6-0.5,1.6-1.4,1.7
			C-442.7,760.5-444.6,760.4-447.9,760.4z"/>
		<path class="st27" d="M-376.5,760.9c-1,0-2.6-0.8-3.4-2.6c-1-2.1-0.4-4.1,1.4-5.3c1.7-1.3,2.3-2.3,1.2-4.4
			c-1.2-2.4,0.2-4.2,2.2-5.3c2.1-1.1,4.3-0.9,5.8,1.1c1.8,2.2,0.7,4.2-1.3,5.4c-2.4,1.4-0.8,2.7-0.2,4
			C-369.4,757.5-371.6,760.9-376.5,760.9z"/>
		<path class="st28" d="M-363.8,750.8c1.2-1.3,3.6-0.9,4.2-3c0.4-1.3,0.4-2.4-0.8-3.1c-1.5-0.9-1.4,0.6-1.7,1.4
			c-0.5,1.3-1.6,1.3-2.4,0.7c-1.2-0.9-0.9-2.2,0.1-3c2-1.7,4.3-1.7,6.4-0.1c2,1.5,2.7,3.7,0.7,5.5c-1.7,1.5-1.8,2.3-0.7,4.3
			c1.3,2.5,0,4.8-2.3,6.3c-2.2,1.4-4.4,1.5-6.4-0.2c-1-0.8-1.5-1.8-1-3.1c0.3-0.8,0.9-1.5,1.9-1.3c1.3,0.3,1.5,1,1.4,2.5
			c-0.1,2.2,1.4,1.3,2.3,0.5C-359.9,756.4-360.6,753.3-363.8,750.8z"/>
		<path class="st26" d="M-403.4,746c2.3-1.1,4.3-2.2,6.3-3.2c1.1,5.8-4.8,11.1-0.9,17.2c-2.2,0.8-4.9,0.3-8.7,0.1
			c5.1-3.2,5-7.9,5.9-12.1C-400.5,746.4-402.8,747.6-403.4,746z"/>
		<path class="st29" d="M-317.7,791.8c6-5.8,10.2-13,14.3-20c4.8-8.2,8.8-16.8,12.3-25.6c1.4-3.7,6-5.7,9.5-4.1
			c2.5,1.2,0.7,3,0.3,4.3c-4.2,14.2-9.9,27.9-16.8,41.1c-0.6,1.1-1.2,2.3-1.3,3.9c0.8-0.9,1.6-1.7,2.3-2.6
			c9.4-13.2,17.2-27.3,23-42.5c1.5-3.9,5.5-5.7,9.5-4.2c2.8,1,0.7,2.9,0.4,4.1c-4.3,15.3-10.5,29.8-18.1,43.7c-0.5,1-1,1.9-1.2,3.1
			c11.3-14.1,19.9-29.6,26.5-46.4c0.6-1.6,0.6-4,2.8-4.4c2.1-0.4,4.7-1,6.3,0.4c1.2,1-0.3,3.1-0.9,4.6
			c-26.4,67.6-75.1,108.6-147.1,118.9c-80.3,11.6-156.2-31.4-189.7-105.1c-2.1-4.5-3.9-9.2-5.5-13.9c-0.5-1.5-3.2-4-0.1-4.8
			c2.6-0.7,6.2-1.8,7.7,2.9c2.1,6.7,5.2,13,8.5,19.2c4.9,9.5,10.4,18.5,17.2,27.3c0.6-1.8-0.4-2.7-0.9-3.7
			c-6.9-13-12.6-26.5-16.7-40.6c-0.5-1.7-3-4.5,0.3-5.1c2.8-0.5,6.9-2.3,8.8,2.8c4,11,9.2,21.4,15.3,31.3c2.8,4.5,5.8,8.9,9.1,13.8
			c1.1-2.3-0.3-3.3-0.8-4.4c-6.2-12.4-11.7-25-15.5-38.4c-0.5-1.7-2.4-4.5,0.2-5c2.8-0.6,6.7-2.3,8.6,2.1c2.8,6.4,5.5,12.9,8.5,19.2
			c4.9,10.2,11,19.7,18.3,28.4c-3.9-8.4-7.9-16.7-11.6-25.1c-3-6.7-5.3-13.7-7.2-20.7c-0.3-1.3-2.3-3.3,0.5-4c2-0.5,4.2-0.8,5.5,1.9
			c2.3,4.4,4.6,8.9,7.4,13c24,35.2,57,55.8,99.8,57.9c54.6,2.7,95-21.6,122.1-68.7c0.5-0.9,0.9-1.8,1.4-2.7c1.4-2.6,4-2,5.7-1.4
			c1.9,0.7,0.4,2.6,0,3.9c-4.1,14.7-10,28.6-17.2,42C-316.4,789.3-317.1,790.6-317.7,791.8z"/>
		<path class="st30" d="M-289,655.3c-2,0-3.8,0-5.6,0c-83.4,0-166.9,0-250.3,0c-5.8,0-6-0.1-4.3-5.9c16-53.2,50.5-87.4,105.4-96.9
			c80.7-13.9,139.4,37.8,154.4,100.5C-289.3,653.6-289.3,654.2-289,655.3z"/>
		<path class="st31" d="M-328.6,697c0.8,2.1,1.4,4.2,2.4,6c2.2,4.2,0.4,4.8-3.4,4.7c-3-0.1-3.4-1-2.2-3.4
			C-330.7,701.9-330.8,699.1-328.6,697z"/>
		<path class="st32" d="M-590.8,702.2c-5.5,1.4-3.9-2.8-4.3-5.8c-0.5-3.9,1.1-5,4.6-4.4c1.3,0.2,2.6,0.1,3.9,0.3
			c3,0.4,4.9,1.9,4.7,5.2c-0.2,3.2-2.1,4.6-5.2,4.7C-588.2,702.2-589.3,702.2-590.8,702.2z"/>
		<path class="st33" d="M-367.9,702.2c-1.4-0.4-4.2,1.1-4.6-1.1c-0.5-2.8-1.6-7.1,0.5-8.5c2.8-1.9,7.1-1.1,10.4,0.4
			c2.3,1,2.2,3.6,1.7,5.7c-0.8,3.3-3.6,3.4-6.3,3.5C-366.7,702.2-367.2,702.2-367.9,702.2z"/>
		<path class="st33" d="M-445.6,696.1c1.2,3,2.1,5.1,2.7,7.3c0.3,1.2,2.2,3,0.2,3.7c-1.7,0.7-4,0.6-5.7-0.1c-1.6-0.6,0-2.3,0.3-3.4
			C-447.6,701.5-446.7,699.3-445.6,696.1z"/>
		<path class="st34" d="M-417.7,750.5c-0.1,2.6-1,4.9-2.8,6.7c-1.5,1.5-3.7,1.9-5.5,1.1c-2.3-0.9-0.7-2.8-0.4-4.3
			c0.3-1.6,0.9-3.2,1.2-4.8c0.5-2.4,0.9-4.8,4.2-4.3C-417.8,745.4-417.6,747.9-417.7,750.5z"/>
		<path class="st35" d="M-384.8,747.3c-0.4,2.1-0.1,4.6-3,4.8c-1.6,0.1-1.5-1.4-1.4-2.5c0.1-2.1,0.1-4.6,2.7-5.1
			C-384.7,744.2-384.9,746.1-384.8,747.3z"/>
		<path class="st36" d="M-373.2,756.3c-0.1,1.4-0.4,2.7-2.2,2.7c-1.9,0-2.6-1.4-2.5-3c0.1-1.5,0.8-3.3,2.4-3.2
			C-373.8,753-373.5,754.9-373.2,756.3z"/>
		<path class="st37" d="M-370.9,746.6c-0.3,1.4-1,2.8-2.4,2.7c-1.2-0.1-1.5-1.7-1.4-2.8c0.1-1.3,0.9-2.2,2.3-2
			C-371.5,744.6-370.7,745.3-370.9,746.6z"/>
		<path class="st38" d="M-506.4,805.8c4.7,0,9.1,3.2,10.7,7.6c1.6,4.5,0,9.8-4.1,13.5c-1.6,1.4-4.1,1.9-3.5,5.2
			c0.2,1.3-2.7,2.6-3.5,0.6c-1-2.5-2.8-2.8-4.7-3.5c-5.3-2.1-8.2-7.4-7.1-12.9C-517.6,810.6-511.9,805.8-506.4,805.8z"/>
		<path class="st39" d="M-484.8,835.8c0.8-4.3,3.3-9.2,5.1-14.4c0.6-1.8,1.9-0.6,2.9-0.3c1.7,0.4,2,1.4,1.4,3
			c-1.4,3.6-2.6,7.2-4,10.7c-1.2,3-1,5.7,2.3,7c3.6,1.4,5.7-0.5,6.9-3.7c1.3-3.4,2.6-6.8,3.7-10.3c0.6-1.7,1.3-2.4,3.2-1.7
			c1.8,0.7,2.2,1.5,1.5,3.3c-1.7,4.1-3,8.5-4.9,12.5c-2.1,4.3-6.4,5.8-10.9,4.5C-482.4,844.9-485,841.5-484.8,835.8z"/>
		<path class="st21" d="M-452.3,853.7c3.6-7.4,6.9-14,10-20.8c0.8-1.8,2-1.8,3.6-1.8c1.9,0,2.6,1,3,2.6c1.5,6.3,3.1,12.5,4.6,18.8
			c0.2,1,1.7,2.8-0.8,3c-1.5,0.1-3.1,0.4-4.1-1.8c-2.2-5.1-7.2-5.7-10.2-1.3C-447.9,854.9-449.8,853.5-452.3,853.7z"/>
		<path class="st40" d="M-342.5,811.7c4.1-6.7,7.7-0.2,11.5,0.2c0.8-3.8-4.5-8.7,2.7-11.1c0.6,2.7,1.5,5.4,1.8,8.1
			c0.5,4.8,2.4,8.9,5.7,12.4c1.3,1.4,0.7,2.2-0.5,3.2c-1.1,0.9-2.2,1.9-3.1,0.1C-328.1,817.2-336,815.6-342.5,811.7z"/>
		<path class="st41" d="M-351.3,819.3c0.1,1-0.5,1.5-1.3,1.8c-4.2,1-3.3,3.3-1.8,6.2c1.7,3.2,3,6.6,4.6,9.9c0.8,1.7,1.9,3.1-0.9,4.2
			c-2.5,1.1-2.8-0.5-3.5-2c-1.8-3.9-3.8-7.8-5.4-11.7c-0.9-2.2-1.9-2.9-4-1.5c-1.5,1-2.9,1.5-3.9-0.8c-1.2-2.6,1.1-2.7,2.4-3.3
			c3.4-1.7,6.9-3.2,10.3-4.9C-352.3,815.9-352,817.9-351.3,819.3z"/>
		<path class="st42" d="M-408.6,855.8c-3.4,1-4.6-0.6-4.7-4.5c-0.1-5-0.9-9.9-1.3-14.9c-0.1-1.7-1-3.7,2-4.1c3-0.4,2.8,1.6,3,3.3
			c0.4,4,1,8,1,11.9c0,3.4,1.6,3.6,4.3,3.3c1.7-0.1,4.6-2.3,5.1,1.5c0.6,4.1-3.1,2.4-4.9,3.1C-405.2,855.9-406.7,855.7-408.6,855.8z
			"/>
		<path class="st43" d="M-376.3,848.8c0.1,2-1.3,1.8-2.4,2.1c-1.3,0.3-2.2,0.2-2.6-1.3c-1.5-6.5-3-12.9-4.6-19.3
			c-0.4-1.5,0.4-2.1,1.8-2.3c1.1-0.1,2.4-1,2.9,0.8C-379.4,835.5-377.8,842.3-376.3,848.8z"/>
		<path class="st44" d="M-469,571c-25.4,17-39.6,40.6-41.4,71.3c-0.2,2.7-0.9,3.7-3.7,3.6c-4.8-0.2-9.7-0.2-14.5,0
			c-3.2,0.2-3.5-0.9-2.8-3.7c9.1-33.7,29.3-58,61.2-72.4C-469.1,569.5-468.8,570-469,571z"/>
		<path class="st45" d="M-469,571c-0.4-0.4-0.8-0.8-1.2-1.2c2.6-1.8,5.4-2.7,8.7-2.8C-464,568.3-466.5,569.7-469,571z"/>
		<path class="st46" d="M-500,816.6c-0.3,2.4-1.2,4.6-3.1,6.4c-0.9,0.9-1.5,1.6-2.5-0.1c-0.9-1.5-2.9-1-3.3-0.1
			c-2.1,4.7-3.5,0.6-4.2-0.5c-2.4-4-0.2-7.3,2.7-10c2.4-2.3,5.3-2.6,8.1-0.6C-500.8,812.9-500.1,814.5-500,816.6z"/>
		<path class="st47" d="M-439.5,838.6c-0.3,2.6,3,4.9,0.5,7.4c-0.5,0.5-3.5-0.3-3.5-0.6C-442.6,842.7-441.2,840.6-439.5,838.6z"/>
	</g>
	<g>
		<path class="st3" d="M544.9,103.7c-0.9,0.8-1.8,1.7-2.8,2.5c-14.2,11.2-28.6,22.3-42.7,33.7c-2.2,1.8-3.4,1.3-5.4-0.2
			c-14.2-11.3-28.4-22.5-42.7-33.6c-3.4-2.6-2.6-3.8,0.6-5.3c6.7-3.2,13.8-4.6,21.1-5.5c19.2-2.4,38.3-2.5,57.3,1.7
			c4.2,0.9,8.3,2.1,12.1,4.2C543.4,101.6,544.6,102.1,544.9,103.7z"/>
		<path class="st3" d="M689.7,281c-12.4,0-24.9,0-37.3,0c-6.1,0-8.5-3.5-5.4-8.9c4.4-7.8,6.5-16.1,7-24.9c0.1-1.2-0.6-3.9,2.4-2.2
			c12.2,6.9,25.8,6.8,39.2,7.5c8.1,0.4,16.4,0,24.5-0.4c3.1-0.2,5,0.8,6.6,3.3c4.2,6.5,5.4,13.8,6.3,21.2c0.4,3.6-0.9,4.5-4.3,4.5
			C715.7,281,702.7,281.1,689.7,281C689.7,281.1,689.7,281,689.7,281z"/>
		<path class="st3" d="M339,244.1c0.8,10.2,2.4,19.7,7.5,28.4c3,5.1,0.4,8.5-5.5,8.5c-25.1,0-50.2-0.1-75.3,0.1
			c-5.1,0.1-6-1.8-5.3-6.1c1-6.4,2.2-12.6,5.4-18.3c1.9-3.5,4.4-4.8,8.6-4.6c16.7,1,33.4,1,49.9-2.5
			C329.3,248.6,334,246.6,339,244.1z"/>
		<path class="st3" d="M629.8,281.3c-33,0-65.2,0-97.4,0c-1.4,0-3.2,0.1-3.7-1.4c-0.6-1.8,1.4-2.2,2.4-3c6.7-5.4,12.1-12,17.4-18.7
			c1.7-2.2,3.4-3.1,6.2-2.9c17.4,0.7,34.3-2,50.4-9.1c1.2-0.5,3.1-2.3,3.5,0.8c1.7,13.8,10.1,23.5,19.8,32.4
			C628.9,279.7,629.1,280.2,629.8,281.3z"/>
		<path class="st3" d="M363.2,280.2c6.3-5.7,11.7-11.1,15.7-17.7c2.9-4.8,5.2-9.8,5.6-15.4c0.2-2.7,1.1-2.8,3.3-1.8
			c16.3,7.4,33.4,10.3,51.2,9.5c2.2-0.1,3.9,0.3,5.5,2.3c5.6,7.4,11.5,14.5,19,20.1c0.7,0.5,1.8,1.1,1.3,2c-0.3,0.6-1.4,1-2.2,1.2
			c-0.7,0.2-1.4,0.1-2.1,0.1c-31.5,0-63,0-94.6,0.1C365.2,280.6,364.7,280.5,363.2,280.2z"/>
		<path class="st4" d="M473.9,271.9c-25.7-9.6-38-33.2-31.5-60.5c0.7-2.9,1.6-5.8,2.5-8.7c2.5-7.5,2.6-7.6,10.2-5.8
			c13.1,3.1,22.2,11.6,29.5,22.3c1.3,1.9,0.5,3.1-0.7,4.6c-3.7,4.3-7.3,8.7-9.8,13.9c-5.4,11.1-6.2,22.1,0.4,33.1
			C474.7,271.3,474.5,271.7,473.9,271.9z"/>
		<path class="st4" d="M518.9,270.5c9.6-17.2,3.2-31.6-7.9-44.9c-3.2-3.9-3-6.1-0.1-9.7c7.5-9.5,16.3-16.7,28.4-19.5
			c4.7-1.1,7.4-0.1,9,5.1c5,15.9,7.1,31.6-1.2,47c-5.5,10.3-14.2,17.3-24.7,22.2C521.3,271.2,520.3,271.5,518.9,270.5z"/>
		<path class="st4" d="M430.4,173.4c-12.3-3.5-22.5-8.8-27.9-20.7c-1.8-4-2-8-0.2-12.3c3.9-9.4,8.4-18.3,16.3-25.2
			c8.4-7.4,19.7-5.4,26.7-1c4.6,2.9,5.3,7.3,3.7,12.2c-1.4,4.3-3.7,8.3-7,11.2c-9.9,8.9-12.9,20-11.6,32.8
			C430.5,171.1,430.4,172,430.4,173.4z"/>
		<path class="st4" d="M563.1,165.5c0.1-10.5-2.8-19.7-10.8-27c-3.8-3.5-6.7-7.9-8.2-12.9c-1.6-5-0.1-9.1,4.4-12
			c8.3-5.3,18.2-4.8,25.9,1.3c7.6,6.1,12.3,14.2,15.5,23.1c4.5,12.6,0.1,21.8-13.8,30c-1.7,1-3.4,1.8-5.2,2.6
			C563,174.1,563,174.1,563.1,165.5z"/>
		<path class="st4" d="M314.7,234.2c12.5-8.1,18.8-20.5,24.5-33.4c1.5-3.4,2.6-7,3.2-10.7c1.4-8.4,5.8-15.1,13.4-18.7
			c7.8-3.7,16.1-6.3,25.1-9.8c-1.5,8.7-4.3,15.9-6.9,23.1c-3.2,8.7-6.8,17.2-10.3,25.7c-1.4,3.4-3.8,6-6.4,8.4
			C345.3,229.7,330.5,233.1,314.7,234.2z"/>
		<path class="st4" d="M678.3,234.1c-16.3-1.4-31.8-4.9-44.1-16.9c-2.2-2.1-3.8-4.6-5.1-7.4c-6.5-15.1-12.6-30.5-16.9-46.4
			c2-0.8,3.8-0.1,5.7,0.5c5.8,2.1,11.6,3.9,17.3,6.3c9.1,3.8,13.4,11.1,15.4,20.5c2.3,10.6,7.5,20,13.5,29.1
			C667.9,225.4,672.7,229.9,678.3,234.1z"/>
		<path class="st3" d="M274.1,233.9c6.2-12.9,13.7-24.9,22.1-36.3c5.2-7,11-13.5,17.8-19.1c1.3-1.1,2.9-2,4.5-2.6
			c13.2-4.5,16-2.2,13.2,11.4c-5.1,25.1-21.7,41.5-50.3,46.2C279.2,233.9,276.9,234.8,274.1,233.9z"/>
		<path class="st3" d="M719.1,234.3c-14.4-1.2-26.9-5.2-38-13.3c-10.1-7.4-14.9-18.2-19.4-29.1c-1.6-3.9-0.8-8.7-1.4-13.1
			c-0.6-4.1,1.7-4.9,5-4.9c6,0,10.9,2.8,15.5,6.4c9.9,7.9,17,18,23.9,28.4C709.8,216.7,714.8,224.8,719.1,234.3z"/>
		<path class="st5" d="M485.5,147.9c-7,6.6-14.1,13.4-21.1,20.1c-5.1,4.9-10.3,9.7-15.2,14.7c-1.8,1.8-2.8,1.8-4.6-0.1
			c-9.4-10.4-10.7-23.4-3.3-35.4c5.2-8.5,12.9-15.3,16.8-24.6c1-2.3,2-0.5,2.7,0.2c7,7,14.1,14.1,20.9,21.3
			C482.8,145.3,484.7,145.8,485.5,147.9z"/>
		<path class="st5" d="M556.7,162.6c0.2,8.2-3.6,14.3-8.3,20.1c-1.6,2-2.7,1.4-4.2-0.1c-11.5-11.1-23.1-22.1-34.8-33.1
			c-1.4-1.3-1.9-2.2-0.3-3.8c7.5-7.3,14.9-14.8,22.3-22.2c1.3-1.3,2.5-2,3.7,0.1c5.8,9.7,14.2,17.7,19.1,28
			C556,155.3,556.9,159,556.7,162.6z"/>
		<path class="st4" d="M588.2,240.5c8-12.6,9.6-25.9,5.6-39.9c-1.6-5.5-4-10.7-4.7-16.3c-1.2-8.9,0.4-16.9,7.4-23.3
			c1.7-1.5,2.6-2,4,0.3c9.6,16.8,16.1,34.6,16.3,54.3C617,232,606.9,240.1,588.2,240.5z"/>
		<path class="st4" d="M405,240.7c-19.1-0.6-29-7.9-28.3-27.5c0.7-18.5,7.5-35.3,15.9-51.5c1.3-2.5,2.5-2.4,4.4-0.7
			c5.4,4.7,7.2,10.8,7.5,17.6c0.2,6.3-1.6,12.2-3.9,18.1c-5.9,14.8-4.5,29,4,42.5C404.9,239.6,404.9,240.2,405,240.7z"/>
		<path class="st5" d="M578.8,174.2c0.2,7.4,1.7,13.6,3.6,19.8c2.9,9.6,2.9,19.3,0.6,29c-2.4,10.3-8.5,17.4-19.2,19.9
			c-2.8,0.6-4.9,1-3.7-3.3c4.3-15.6,2-30.6-5.5-44.8c-1.5-2.9-1.7-4.3,1.5-6.2C563.5,184.1,570.8,179.3,578.8,174.2z"/>
		<path class="st5" d="M414.6,174.4c8.4,5.3,16,10.2,23.7,14.9c2.4,1.5,1.9,2.8,0.8,4.7c-8,14.6-10.3,30-5.7,46.1
			c1.1,3.7-1.2,3.3-3.4,2.9c-9.4-1.6-18.1-10.4-20-20.4c-1.9-10.3-0.5-20.5,1.6-30.5C412.8,186.6,414.3,181.1,414.6,174.4z"/>
		<path class="st4" d="M329.7,161.6c20.4-22.8,44.8-37.5,72.4-48.3C397.7,143.8,365.2,165.1,329.7,161.6z"/>
		<path class="st4" d="M663.5,161.4c-32.9,3.5-66.8-15.1-72.6-48.3C618.7,123.9,642.8,139.1,663.5,161.4z"/>
		<path class="st3" d="M488.8,179.1c-6.8,1.3-11,5.9-13.2,11.9c-0.9,2.3-1.5,2.2-3.2,1.6c-3.9-1.3-7.7-2.6-12-4
			c3.5-5.8,8.1-10.4,12.6-15c6.4-6.4,13-12.5,20-18.3c1.6-1.4,2.8-1.7,4.5-0.1c10.7,9.7,21.8,18.9,30.8,30.2c2,2.5,2.3,3.8-1.3,4.4
			c-0.9,0.1-1.7,0.4-2.5,0.8c-5.4,2.5-9.6,3.4-12-4.2c-1.4-4.5-6.3-6.5-11.1-7.4c-1.2-0.6-2.6-0.1-3.9-0.5c-0.5,0-1,0-1.4,0
			c-0.6,0.3-1.2,0.3-1.8,0.1c-0.8,0-1.7,0-2.5,0.1C490.6,178.7,489.6,178.5,488.8,179.1z"/>
		<path class="st6" d="M495.1,270.6c-1.4-0.2-3.5-0.2-5.6-0.7c-6.4-1.2-10.2-6.4-9.1-12.8c1.9-10.5,7.3-19.5,12.8-28.4
			c1.3-2.1,2.6-2.1,3.9,0c5.6,8.7,10.4,17.7,12.8,27.8C512,264.7,505.9,270.5,495.1,270.6z"/>
		<path class="st4" d="M373.6,243.3c-0.1,4.3-3.2,9-6.4,13.7c-2.4,3.5-5.4,6.6-8.4,9.6c-4.7,4.6-5.1,4.6-7.8-1.6
			c-3.1-7-6.6-14.3-1.2-21.5c4-5.4,9.8-9.3,15.2-13.3c1.6-1.2,2.6-0.4,3.7,0.6C371.7,233.7,373.7,237.1,373.6,243.3z"/>
		<path class="st4" d="M645.4,252.5c0.5,5.9-2,10.4-4.3,15c-1.1,2.1-2.1,3.1-4.4,1.1c-6.4-6-12.3-12.4-15.6-20.6
			c-2.8-6.9-1.5-12.7,3.4-17c1.2-1.1,2.3-2.2,4.1-0.8c5.3,4.1,10.9,7.9,14.7,13.7C645,246.6,647,249.4,645.4,252.5z"/>
		<path class="st6" d="M483.4,196.3c-0.9-6.6,0.2-8.5,6.1-10.3c1.2-0.4,2.4-0.7,3.6-0.8c5.1-0.4,10.4-0.3,13.4,4.6
			c2.8,4.6,0.2,9-2.4,12.9c-7.4,11.5-11.8,11.2-18.5-0.9c-0.8-1.4-1.3-2.9-2-4.4C483.4,197.1,483.3,196.7,483.4,196.3z"/>
		<path class="st7" d="M497.3,178.5c1.4-1,2.7-0.6,3.9,0.5C499.9,179.2,498.6,179.2,497.3,178.5z"/>
		<path class="st7" d="M488.8,179.1c0.8-0.7,1.7-1.3,2.8-0.5C490.6,178.8,489.7,178.9,488.8,179.1z"/>
		<path class="st8" d="M483.4,196.3c0.1,0.4,0.2,0.7,0.3,1.1C483.6,197,483.5,196.6,483.4,196.3z"/>
		<path class="st7" d="M494.1,178.5c0.6-0.7,1.2-0.7,1.8-0.1C495.3,178.5,494.7,178.5,494.1,178.5z"/>
		<path class="st4" d="M474.5,270.7c0.2,0.4,0.4,0.7,0.6,1.1c-0.4,0-0.8,0.1-1.2,0.1C474.1,271.5,474.3,271.1,474.5,270.7z"/>
		<path class="st9" d="M500.1,247.9c-0.1,3.8-1.8,5.7-5,5.6c-3.2-0.1-5.4-1.7-5.2-5.4c0.2-3.8,2.9-4.7,5.9-4.7
			C498.9,243.6,500.3,245.5,500.1,247.9z"/>
		<path class="st9" d="M498.6,199.3c-0.5,1.9-1.6,3.2-3.6,3.2c-2.2-0.1-2.9-1.8-2.8-3.7c0.1-1.9,1.3-2.8,3.1-2.7
			C497.4,196.1,498.6,197.1,498.6,199.3z"/>
	</g>
</g>
<g id="Layer_2">
	<g>
		<path class="st48" d="M1162.2,61.4v29c0,11.6-8.5,17.4-17.4,17.3c-8.8,0-17.2-5.8-17.2-17.3V78.7l8.3-4.2v15.8c0,6,4.6,9,8.8,9
			c4.4,0,9.2-3,9.2-9V65.6L1162.2,61.4z M1144.8,57.4l-6.5-6.5l6.5-6.5l6.5,6.5L1144.8,57.4z"/>
		<path class="st48" d="M1178.9,70.6c0-11.6,8.5-17.3,17.3-17.3c11.6,0,17.3,8.5,17.3,17.3v13.1c0,2.3-1.9,4.2-4.1,4.2h-43.2
			c-2.3,0-4.2-1.9-4.2-4.2v-4.1h16.8V70.6z M1205.3,79.7v-9c0-4.3-3-9-9-9c-4.3,0-9,3-9,9v9H1205.3z"/>
		<path class="st48" d="M1241.5,53.4v34.6h-23.9c-2.3,0-4.2-1.9-4.2-4.2v-4.1h19.7V57.5c0-2.2,1.9-4.2,4.2-4.2H1241.5z M1227.2,96.8
			l5.5,5.4l5.5-5.4l6.5,6.5l-6.5,6.5l-5.5-5.4l-5.5,5.4l-6.4-6.5L1227.2,96.8z"/>
		<path class="st48" d="M1261,32.8c3.3,5.4,7.4,9.5,10.8,12.3h-2.5v42.9h-23.6c-2.3,0-4.2-1.9-4.2-4.1v-4.2h19.5V32.8z"/>
		<path class="st48" d="M1284,32.8c3.3,5.4,7.4,9.5,10.8,12.3h-2.5v42.9h-8.3V32.8z"/>
		<path class="st48" d="M1361.2,61.4v29c0,11.6-8.5,17.4-17.4,17.3c-8.8,0-17.2-5.8-17.2-17.3V78.7l8.3-4.2v15.8c0,6,4.6,9,8.8,9
			c4.4,0,9.2-3,9.2-9V65.6L1361.2,61.4z M1343.8,57.4l-6.5-6.5l6.5-6.5l6.5,6.5L1343.8,57.4z"/>
		<path class="st48" d="M1375.8,32.8c3.3,5.4,7.4,9.5,10.8,12.3h-2.5v42.9h-8.3V32.8z"/>
		<path class="st48" d="M1450.4,32.8v46.9h-19.2c-0.1-0.8-0.2-1.6-0.2-2.4v-6.6c0-8.8-5.8-17.3-17.3-17.3
			c-11.6,0-17.4,8.5-17.3,17.4c0,8.8,5.8,17.1,17.3,17.1h8.6c-1.9,7.7-8.6,11.5-15.1,11.5h-0.5c1.3,2,2.5,4.6,2.8,8.2
			c10.2-0.9,19.6-7.5,21.3-19.7h4.2v0c0,0,0.1,0,0.2,0h23.6V45h2.5C1457.8,42.3,1453.7,38.2,1450.4,32.8z M1422.7,79.7h-9
			c-6,0-9-4.6-9-9c0-4.3,3-9.1,9-9.1c6,0,9,4.7,9,9V79.7z"/>
		<path class="st48" d="M1473.4,32.8c3.3,5.4,7.4,9.5,10.8,12.3h-2.5v42.9h-8.3V32.8z"/>
		<path class="st48" d="M1556.4,53.3c-8.8,0-17.3,5.8-17.3,17.3v9h-5.9c-8.8,0-17.3,5.7-17.3,17.3v5.1l8.3,4.2V97c0-6,4.7-9,9-9
			h36.3c2.1,0,3.9-1.7,4.1-3.7c0-0.1,0-0.3,0-0.5V70.6C1573.7,61.8,1567.9,53.3,1556.4,53.3z M1565.4,79.7h-18.1v-9c0-6,4.7-9,9-9
			c6,0,9,4.7,9,9V79.7z"/>
		<path class="st48" d="M1573.7,79.6v4.1c0,0.2,0,0.3,0,0.5c0-0.1,0-0.3,0-0.5L1573.7,79.6L1573.7,79.6z"/>
		<path class="st48" d="M1723.6,79.7v4.1c0,0.2,0,0.4,0,0.6L1723.6,79.7L1723.6,79.7z"/>
		<path class="st48" d="M1723.6,79.7v-9c0-8.9-5.7-17.3-17.3-17.3h-29c-6.3,0-11.9,3.5-14.6,9.8V45h2.5c-3.4-2.8-7.5-6.8-10.8-12.3
			v47h-13.1c0,0,0,0,0,0h-4.3c-7,0-14.2-4.4-15.4-13c-0.4-2.9,2.1-5,4.9-5h14.8c0.4-3.6,1.6-6.3,2.9-8.3h-55.8l4.1,8.3h15.7
			c2.8,0,5.2,2,4.9,4.8c-1,6.8-6.2,13.2-15.5,13.2h-23.8v4.1c0,0.2,0,0.3,0,0.5c0.2,2.1,2,3.7,4.1,3.7h19.7c9.4,0,15.8-3.9,19.7-9.7
			c4.6,6.5,12.1,9.7,19.8,9.7h21.5c2.1,0,4.1-2,4.1-4.1v4.1h60.9v-3.5c0-0.2,0-0.4,0-0.6L1723.6,79.7L1723.6,79.7z M1715.3,79.6
			h-52.7c0-0.2,0-3.1,0-3.6c0.5-7.8,5-14.5,14.6-14.5h29c6,0,9,4.7,9,9V79.6z"/>
		<path class="st48" d="M1757.7,53.3c-8.8,0-17.3,5.8-17.3,17.3v9h-16.8v4.1c0,0.2,0,0.4,0,0.6c0.3,2,2.1,3.5,4.1,3.5h30
			c11.8,0,17.5-8.8,17.3-17.8C1774.8,61.5,1769.1,53.3,1757.7,53.3z M1757.7,79.7h-9v-9c0-6,4.7-9,9-9c6,0,9,4.7,9,9
			C1766.7,74.9,1763.7,79.7,1757.7,79.7z"/>
	</g>
	<g>
		<path class="st49" d="M116.6,385.6v38.1c0,15.3-11.3,22.9-23,22.8c-11.6-0.1-22.6-7.7-22.6-22.8v-15.3l10.9-5.5v20.8
			c0,7.8,6,11.8,11.6,11.9c5.8,0.1,12.1-3.9,12.1-11.9V391L116.6,385.6z M93.8,380.3l-8.6-8.6l8.6-8.6l8.6,8.6L93.8,380.3z"/>
		<path class="st49" d="M138.7,397.7c0-15.2,11.2-22.8,22.8-22.8c15.2,0,22.8,11.2,22.8,22.8V415c0,3-2.4,5.5-5.4,5.5H122
			c-3,0-5.5-2.4-5.5-5.5v-5.4h22.1V397.7z M173.4,409.6v-11.9c0-5.7-4-11.9-11.9-11.9c-5.7,0-11.9,4-11.9,11.9v11.9H173.4z"/>
		<path class="st49" d="M221.1,375v45.5h-31.4c-3,0-5.5-2.4-5.5-5.5v-5.4h26v-29.2c0-3,2.5-5.5,5.5-5.5H221.1z M202.3,432.2l7.2,7.1
			l7.2-7.1l8.6,8.6l-8.6,8.6l-7.2-7.1l-7.2,7.1l-8.5-8.6L202.3,432.2z"/>
		<path class="st49" d="M246.7,347.9c4.4,7.1,9.8,12.5,14.3,16.1h-3.3v56.5h-31.1c-3,0-5.5-2.4-5.5-5.4v-5.5h25.7V347.9z"/>
		<path class="st49" d="M277.1,347.9c4.4,7.1,9.8,12.5,14.2,16.1H288v56.5h-10.9V347.9z"/>
		<path class="st49" d="M378.7,385.6v38.1c0,15.3-11.3,22.9-23,22.8c-11.6-0.1-22.6-7.7-22.6-22.8v-15.3l10.9-5.5v20.8
			c0,7.8,6,11.8,11.6,11.9c5.8,0.1,12.1-3.9,12.1-11.9V391L378.7,385.6z M355.9,380.3l-8.6-8.6l8.6-8.6l8.6,8.6L355.9,380.3z"/>
		<path class="st49" d="M398,347.9c4.4,7.1,9.8,12.5,14.2,16.1h-3.3v56.5H398V347.9z"/>
		<path class="st49" d="M496.2,347.9v61.7h-25.3c-0.2-1-0.3-2.1-0.3-3.2v-8.7c0-11.6-7.6-22.8-22.8-22.8c-15.3,0-22.9,11.3-22.8,23
			c0.1,11.6,7.7,22.6,22.8,22.6h11.3c-2.5,10.2-11.4,15.1-19.9,15.1h-0.7c1.7,2.6,3.3,6.1,3.7,10.8c13.4-1.2,25.9-9.8,28-25.9h5.5v0
			c0.1,0,0.1,0,0.2,0h31.1V364h3.3C505.9,360.4,500.5,355,496.2,347.9z M459.7,409.6h-11.9c-7.8,0-11.8-6.1-11.8-11.8
			c-0.1-5.7,3.9-12,11.8-12c7.9,0,11.9,6.2,11.9,11.9V409.6z"/>
		<path class="st49" d="M526.5,347.9c4.4,7.1,9.8,12.5,14.2,16.1h-3.3v56.5h-10.9V347.9z"/>
		<path class="st49" d="M635.8,374.9c-11.6,0-22.8,7.6-22.8,22.8v11.9h-7.7c-11.6,0-22.8,7.5-22.8,22.8v6.7l10.9,5.5v-12.2
			c0-7.9,6.2-11.9,11.9-11.9h47.8c2.8,0,5.1-2.2,5.4-4.9c0-0.2,0-0.4,0-0.6v-17.3C658.6,386.1,651,374.9,635.8,374.9z M647.7,409.6
			h-23.8v-11.9c0-7.9,6.2-11.9,11.9-11.9c7.9,0,11.9,6.2,11.9,11.9V409.6z"/>
		<path class="st49" d="M658.5,409.6v5.5c0,0.2,0,0.4,0,0.6c0-0.2,0-0.4,0-0.6L658.5,409.6L658.5,409.6z"/>
		<path class="st49" d="M855.9,409.6v5.4c0,0.3,0,0.5,0.1,0.8L855.9,409.6L855.9,409.6z"/>
		<path class="st49" d="M856,409.6v-11.9c0-11.7-7.5-22.8-22.8-22.8H795c-8.2,0-15.6,4.6-19.3,12.9v-23.9h3.3
			c-4.4-3.7-9.9-9-14.2-16.1v61.9h-17.3c0,0,0,0,0-0.1H742c-9.2,0-18.7-5.8-20.3-17.2c-0.5-3.8,2.7-6.6,6.5-6.6h19.4
			c0.5-4.8,2.1-8.4,3.8-10.9h-73.5l5.4,10.9h20.6c3.7,0,6.9,2.6,6.4,6.3c-1.3,9-8.1,17.4-20.4,17.4h-31.4v5.5c0,0.2,0,0.4,0,0.6
			c0.3,2.7,2.6,4.9,5.4,4.9h26c12.4,0,20.8-5.1,25.9-12.7c6,8.6,15.9,12.7,26.1,12.7h28.3c2.8,0,5.5-2.6,5.5-5.4v5.4H856v-4.7
			c0-0.3-0.1-0.5-0.1-0.8L856,409.6L856,409.6z M845.1,409.6h-69.4c0-0.3,0-4.1,0.1-4.7c0.6-10.2,6.6-19,19.2-19h38.2
			c7.9,0,11.9,6.2,11.9,11.9V409.6z"/>
		<path class="st49" d="M900.9,374.9c-11.6,0-22.8,7.6-22.8,22.8v11.9h-22.2v5.4c0,0.3,0,0.5,0.1,0.8c0.4,2.6,2.7,4.7,5.4,4.7h39.5
			c15.6,0,23.1-11.6,22.8-23.4C923.4,385.6,915.9,374.9,900.9,374.9z M900.9,409.6H889v-11.9c0-7.9,6.2-11.9,11.9-11.9
			c7.9,0,11.9,6.2,11.9,11.9C912.8,403.4,908.8,409.6,900.9,409.6z"/>
	</g>
	<text transform="matrix(1 0 0 1 -686.7656 -6.6382)" style="font-family:'Jazeel-Regular'; font-size:100px;">نميلا ناولا معطم</text>
</g>
<g id="Layer_3">
</g>
</svg>
